<svg xmlns="http://www.w3.org/2000/svg" xmlns:xlink="http://www.w3.org/1999/xlink" id="processonSvg1000" viewBox="345.27583503723145 56.471588134765625 1035.031857270461 490.0" width="1035.031857270461" height="490.0"><defs id="ProcessOnDefs1001"><marker id="ProcessOnMarker1023" markerUnits="userSpaceOnUse" orient="auto" markerWidth="16.23606797749979" markerHeight="10.550836550532098" viewBox="-1.0 -1.3763819204711736 16.23606797749979 10.550836550532098" refX="-1.0" refY="3.8990363547948754"><path id="ProcessOnPath1024" d="M12.0 3.8990363547948754L0.0 7.798072709589751V0.0Z" stroke="#323232" stroke-width="2.0" fill="#323232" transform="matrix(1.0,0.0,0.0,1.0,0.0,0.0)"/></marker><marker id="ProcessOnMarker1027" markerUnits="userSpaceOnUse" orient="auto" markerWidth="16.23606797749979" markerHeight="10.550836550532098" viewBox="-1.0 -1.3763819204711736 16.23606797749979 10.550836550532098" refX="-1.0" refY="3.8990363547948754"><path id="ProcessOnPath1028" d="M12.0 3.8990363547948754L0.0 7.798072709589751V0.0Z" stroke="#323232" stroke-width="2.0" fill="#323232" transform="matrix(1.0,0.0,0.0,1.0,0.0,0.0)"/></marker><marker id="ProcessOnMarker1038" markerUnits="userSpaceOnUse" orient="auto" markerWidth="16.23606797749979" markerHeight="10.550836550532098" viewBox="-1.0 -1.3763819204711736 16.23606797749979 10.550836550532098" refX="-1.0" refY="3.8990363547948754"><path id="ProcessOnPath1039" d="M12.0 3.8990363547948754L0.0 7.798072709589751V0.0Z" stroke="#323232" stroke-width="2.0" fill="#323232" transform="matrix(1.0,0.0,0.0,1.0,0.0,0.0)"/></marker><marker id="ProcessOnMarker1047" markerUnits="userSpaceOnUse" orient="auto" markerWidth="16.23606797749979" markerHeight="10.550836550532098" viewBox="-1.0 -1.3763819204711736 16.23606797749979 10.550836550532098" refX="-1.0" refY="3.8990363547948754"><path id="ProcessOnPath1048" d="M12.0 3.8990363547948754L0.0 7.798072709589751V0.0Z" stroke="#323232" stroke-width="2.0" fill="#323232" transform="matrix(1.0,0.0,0.0,1.0,0.0,0.0)"/></marker></defs><g id="ProcessOnG1002"><path id="ProcessOnPath1003" d="M345.27583503723145 56.471588134765625H1380.3076923076924V546.4715881347656H345.27583503723145V56.471588134765625Z" fill="none"/><g id="ProcessOnG1004"><g id="ProcessOnG1005" transform="matrix(1.0,0.0,0.0,1.0,382.437912940979,456.5999984741211)" opacity="1.0"><path id="ProcessOnPath1006" d="M0.0 0.0L134.32415580749512 0.0L134.32415580749512 69.87158966064453L0.0 69.87158966064453Z" stroke="#323232" stroke-width="2.0" stroke-dasharray="none" opacity="1.0" fill="#ffffff"/><g id="ProcessOnG1007" transform="matrix(1.0,0.0,0.0,1.0,10.0,18.685794830322266)"><text id="ProcessOnText1008" fill="#000000" font-size="13" x="56.16207790374756" y="13.325" font-family="微软雅黑" font-weight="normal" font-style="normal" text-decoration="none" family="微软雅黑" text-anchor="middle" size="13">tempGameObject.</text><text id="ProcessOnText1009" fill="#000000" font-size="13" x="56.16207790374756" y="29.575" font-family="微软雅黑" font-weight="normal" font-style="normal" text-decoration="none" family="微软雅黑" text-anchor="middle" size="13">GetInstanceID()</text></g></g><g id="ProcessOnG1010" transform="matrix(1.0,0.0,0.0,1.0,378.89998626708984,264.0)" opacity="1.0"><path id="ProcessOnPath1011" d="M0.0 0.0L141.40000915527344 0.0L141.40000915527344 100.0L0.0 100.0Z" stroke="#323232" stroke-width="2.0" stroke-dasharray="none" opacity="1.0" fill="#ffffff"/><g id="ProcessOnG1012" transform="matrix(1.0,0.0,0.0,1.0,10.0,25.625)"><text id="ProcessOnText1013" fill="#000000" font-size="13" x="59.70000457763672" y="13.325" font-family="微软雅黑" font-weight="normal" font-style="normal" text-decoration="none" family="微软雅黑" text-anchor="middle" size="13">GameObject元表（</text><text id="ProcessOnText1014" fill="#000000" font-size="13" x="59.70000457763672" y="29.575" font-family="微软雅黑" font-weight="normal" font-style="normal" text-decoration="none" family="微软雅黑" text-anchor="middle" size="13">代表UnityEngine.G</text><text id="ProcessOnText1015" fill="#000000" font-size="13" x="59.70000457763672" y="45.825" font-family="微软雅黑" font-weight="normal" font-style="normal" text-decoration="none" family="微软雅黑" text-anchor="middle" size="13">ameObject类）</text></g></g><g id="ProcessOnG1016" transform="matrix(1.0,0.0,0.0,1.0,365.27583503723145,76.47158813476562)" opacity="1.0"><path id="ProcessOnPath1017" d="M0.0 0.0L168.64831161499023 0.0L168.64831161499023 97.52841186523438L0.0 97.52841186523438Z" stroke="#323232" stroke-width="2.0" stroke-dasharray="none" opacity="1.0" fill="#ffffff"/><g id="ProcessOnG1018" transform="matrix(1.0,0.0,0.0,1.0,10.0,32.51420593261719)"><text id="ProcessOnText1019" fill="#000000" font-size="13" x="73.32415580749512" y="13.325" font-family="微软雅黑" font-weight="normal" font-style="normal" text-decoration="none" family="微软雅黑" text-anchor="middle" size="13">Object元表（代表UnityE</text><text id="ProcessOnText1020" fill="#000000" font-size="13" x="73.32415580749512" y="29.575" font-family="微软雅黑" font-weight="normal" font-style="normal" text-decoration="none" family="微软雅黑" text-anchor="middle" size="13">ngine.Object类）</text></g></g><g id="ProcessOnG1021"><path id="ProcessOnPath1022" d="M449.59999084472656 456.5999984741211L449.59999084472656 410.29999923706055L449.59999084472656 410.29999923706055L449.59999084472656 379.2360679774998" stroke="#323232" stroke-width="2.0" stroke-dasharray="none" fill="none" marker-end="url(#ProcessOnMarker1023)"/></g><g id="ProcessOnG1025"><path id="ProcessOnPath1026" d="M449.59999084472656 264.0L449.59999084472656 219.0L449.59999084472656 219.0L449.59999084472656 189.2360679774998" stroke="#323232" stroke-width="2.0" stroke-dasharray="none" fill="none" marker-end="url(#ProcessOnMarker1027)"/></g><g id="ProcessOnG1029" transform="matrix(1.0,0.0,0.0,1.0,624.1538461538454,327.38461538461536)" opacity="1.0"><path id="ProcessOnPath1030" d="M0.0 23.26923076923076Q184.0384615384617 69.80769230769228 368.0769230769234 23.26923076923076Q552.1153846153851 -23.26923076923076 736.1538461538468 23.26923076923076L736.1538461538468 162.8846153846153Q552.1153846153851 116.3461538461538 368.0769230769234 162.8846153846153Q184.0384615384617 209.42307692307685 0.0 162.8846153846153L0.0 23.26923076923076Z" stroke="#323232" stroke-width="2.0" stroke-dasharray="none" opacity="1.0" fill="#ffffff"/><g id="ProcessOnG1031" transform="matrix(1.0,0.0,0.0,1.0,0.0,60.57692307692305)"><text id="ProcessOnText1032" fill="#000000" font-size="13" x="0.0" y="13.325" font-family="微软雅黑" font-weight="normal" font-style="normal" text-decoration="none" family="微软雅黑" text-anchor="start" size="13">因为调用了实例中不存在的域，所以触发了元表的__index元方法，在__index元方法中以以下顺序去寻找GetInstanceID方法：</text><text id="ProcessOnText1033" fill="#000000" font-size="13" x="0.0" y="29.575" font-family="微软雅黑" font-weight="normal" font-style="normal" text-decoration="none" family="微软雅黑" text-anchor="start" size="13">1.尝试直接从元表中取GetInstanceID域，没有找到</text><text id="ProcessOnText1034" fill="#000000" font-size="13" x="0.0" y="45.825" font-family="微软雅黑" font-weight="normal" font-style="normal" text-decoration="none" family="微软雅黑" text-anchor="start" size="13">2.尝试从元表的gettag表中去取，发现gettag表中也没有GetInstanceID域</text><text id="ProcessOnText1035" fill="#000000" font-size="13" x="0.0" y="62.075" font-family="微软雅黑" font-weight="normal" font-style="normal" text-decoration="none" family="微软雅黑" text-anchor="start" size="13">3.尝试从GameObject的元表Object中去取</text></g></g><g id="ProcessOnG1036"><path id="ProcessOnPath1037" d="M624.1538461538454 420.46153846153845L538.8510720179627 420.46153846153845L538.8510720179627 420.46153846153845L468.78436585957985 420.46153846153845" stroke="#323232" stroke-width="2.0" stroke-dasharray="none" fill="none" marker-end="url(#ProcessOnMarker1038)"/></g><g id="ProcessOnG1040" transform="matrix(1.0,0.0,0.0,1.0,624.1538461538455,125.38461538461536)" opacity="1.0"><path id="ProcessOnPath1041" d="M0.0 23.26923076923076Q184.0384615384617 69.80769230769228 368.0769230769234 23.26923076923076Q552.1153846153851 -23.26923076923076 736.1538461538468 23.26923076923076L736.1538461538468 162.8846153846153Q552.1153846153851 116.3461538461538 368.0769230769234 162.8846153846153Q184.0384615384617 209.42307692307685 0.0 162.8846153846153L0.0 23.26923076923076Z" stroke="#323232" stroke-width="2.0" stroke-dasharray="none" opacity="1.0" fill="#ffffff"/><g id="ProcessOnG1042" transform="matrix(1.0,0.0,0.0,1.0,0.0,76.82692307692305)"><text id="ProcessOnText1043" fill="#000000" font-size="13" x="0.0" y="13.325" font-family="微软雅黑" font-weight="normal" font-style="normal" text-decoration="none" family="微软雅黑" text-anchor="start" size="13">由GameObject跳到Object中进行查找</text><text id="ProcessOnText1044" fill="#000000" font-size="13" x="0.0" y="29.575" font-family="微软雅黑" font-weight="normal" font-style="normal" text-decoration="none" family="微软雅黑" text-anchor="start" size="13">1.尝试直接从元表中取GetInstanceID域，取到了，查找结束</text></g></g><g id="ProcessOnG1045"><path id="ProcessOnPath1046" d="M624.1538461538455 218.4615384615384L538.3510720179628 218.4615384615384L538.3510720179628 218.4615384615384L467.78436585957985 218.4615384615384" stroke="#323232" stroke-width="2.0" stroke-dasharray="none" fill="none" marker-end="url(#ProcessOnMarker1047)"/></g></g></g></svg>