<svg xmlns="http://www.w3.org/2000/svg" xmlns:xlink="http://www.w3.org/1999/xlink" id="processonSvg1000" viewBox="272.0 77.0 515.0 1303.0" width="515.0" height="1303.0"><defs id="ProcessOnDefs1001"><marker id="ProcessOnMarker1096" markerUnits="userSpaceOnUse" orient="auto" markerWidth="16.23606797749979" markerHeight="10.550836550532098" viewBox="-1.0 -1.3763819204711736 16.23606797749979 10.550836550532098" refX="-1.0" refY="3.8990363547948754"><path id="ProcessOnPath1097" d="M12.0 3.8990363547948754L0.0 7.798072709589751V0.0Z" stroke="#323232" stroke-width="2.0" fill="#323232" transform="matrix(1.0,0.0,0.0,1.0,0.0,0.0)"/></marker><marker id="ProcessOnMarker1100" markerUnits="userSpaceOnUse" orient="auto" markerWidth="16.23606797749979" markerHeight="10.550836550532098" viewBox="-1.0 -1.3763819204711736 16.23606797749979 10.550836550532098" refX="-1.0" refY="3.8990363547948754"><path id="ProcessOnPath1101" d="M12.0 3.8990363547948754L0.0 7.798072709589751V0.0Z" stroke="#323232" stroke-width="2.0" fill="#323232" transform="matrix(1.0,0.0,0.0,1.0,0.0,0.0)"/></marker><marker id="ProcessOnMarker1104" markerUnits="userSpaceOnUse" orient="auto" markerWidth="16.23606797749979" markerHeight="10.550836550532098" viewBox="-1.0 -1.3763819204711736 16.23606797749979 10.550836550532098" refX="-1.0" refY="3.8990363547948754"><path id="ProcessOnPath1105" d="M12.0 3.8990363547948754L0.0 7.798072709589751V0.0Z" stroke="#323232" stroke-width="2.0" fill="#323232" transform="matrix(1.0,0.0,0.0,1.0,0.0,0.0)"/></marker><marker id="ProcessOnMarker1108" markerUnits="userSpaceOnUse" orient="auto" markerWidth="16.23606797749979" markerHeight="10.550836550532098" viewBox="-1.0 -1.3763819204711736 16.23606797749979 10.550836550532098" refX="-1.0" refY="3.8990363547948754"><path id="ProcessOnPath1109" d="M12.0 3.8990363547948754L0.0 7.798072709589751V0.0Z" stroke="#323232" stroke-width="2.0" fill="#323232" transform="matrix(1.0,0.0,0.0,1.0,0.0,0.0)"/></marker><marker id="ProcessOnMarker1112" markerUnits="userSpaceOnUse" orient="auto" markerWidth="16.23606797749979" markerHeight="10.550836550532098" viewBox="-1.0 -1.3763819204711736 16.23606797749979 10.550836550532098" refX="-1.0" refY="3.8990363547948754"><path id="ProcessOnPath1113" d="M12.0 3.8990363547948754L0.0 7.798072709589751V0.0Z" stroke="#323232" stroke-width="2.0" fill="#323232" transform="matrix(1.0,0.0,0.0,1.0,0.0,0.0)"/></marker><marker id="ProcessOnMarker1116" markerUnits="userSpaceOnUse" orient="auto" markerWidth="16.23606797749979" markerHeight="10.550836550532098" viewBox="-1.0 -1.3763819204711736 16.23606797749979 10.550836550532098" refX="-1.0" refY="3.8990363547948754"><path id="ProcessOnPath1117" d="M12.0 3.8990363547948754L0.0 7.798072709589751V0.0Z" stroke="#323232" stroke-width="2.0" fill="#323232" transform="matrix(1.0,0.0,0.0,1.0,0.0,0.0)"/></marker><marker id="ProcessOnMarker1120" markerUnits="userSpaceOnUse" orient="auto" markerWidth="16.23606797749979" markerHeight="10.550836550532098" viewBox="-1.0 -1.3763819204711736 16.23606797749979 10.550836550532098" refX="-1.0" refY="3.8990363547948754"><path id="ProcessOnPath1121" d="M12.0 3.8990363547948754L0.0 7.798072709589751V0.0Z" stroke="#323232" stroke-width="2.0" fill="#323232" transform="matrix(1.0,0.0,0.0,1.0,0.0,0.0)"/></marker><marker id="ProcessOnMarker1124" markerUnits="userSpaceOnUse" orient="auto" markerWidth="16.23606797749979" markerHeight="10.550836550532098" viewBox="-1.0 -1.3763819204711736 16.23606797749979 10.550836550532098" refX="-1.0" refY="3.8990363547948754"><path id="ProcessOnPath1125" d="M12.0 3.8990363547948754L0.0 7.798072709589751V0.0Z" stroke="#323232" stroke-width="2.0" fill="#323232" transform="matrix(1.0,0.0,0.0,1.0,0.0,0.0)"/></marker><marker id="ProcessOnMarker1128" markerUnits="userSpaceOnUse" orient="auto" markerWidth="16.23606797749979" markerHeight="10.550836550532098" viewBox="-1.0 -1.3763819204711736 16.23606797749979 10.550836550532098" refX="-1.0" refY="3.8990363547948754"><path id="ProcessOnPath1129" d="M12.0 3.8990363547948754L0.0 7.798072709589751V0.0Z" stroke="#323232" stroke-width="2.0" fill="#323232" transform="matrix(1.0,0.0,0.0,1.0,0.0,0.0)"/></marker><marker id="ProcessOnMarker1132" markerUnits="userSpaceOnUse" orient="auto" markerWidth="16.23606797749979" markerHeight="10.550836550532098" viewBox="-1.0 -1.3763819204711736 16.23606797749979 10.550836550532098" refX="-1.0" refY="3.8990363547948754"><path id="ProcessOnPath1133" d="M12.0 3.8990363547948754L0.0 7.798072709589751V0.0Z" stroke="#323232" stroke-width="2.0" fill="#323232" transform="matrix(1.0,0.0,0.0,1.0,0.0,0.0)"/></marker><marker id="ProcessOnMarker1136" markerUnits="userSpaceOnUse" orient="auto" markerWidth="16.23606797749979" markerHeight="10.550836550532098" viewBox="-1.0 -1.3763819204711736 16.23606797749979 10.550836550532098" refX="-1.0" refY="3.8990363547948754"><path id="ProcessOnPath1137" d="M12.0 3.8990363547948754L0.0 7.798072709589751V0.0Z" stroke="#323232" stroke-width="2.0" fill="#323232" transform="matrix(1.0,0.0,0.0,1.0,0.0,0.0)"/></marker><marker id="ProcessOnMarker1140" markerUnits="userSpaceOnUse" orient="auto" markerWidth="16.23606797749979" markerHeight="10.550836550532098" viewBox="-1.0 -1.3763819204711736 16.23606797749979 10.550836550532098" refX="-1.0" refY="3.8990363547948754"><path id="ProcessOnPath1141" d="M12.0 3.8990363547948754L0.0 7.798072709589751V0.0Z" stroke="#323232" stroke-width="2.0" fill="#323232" transform="matrix(1.0,0.0,0.0,1.0,0.0,0.0)"/></marker><marker id="ProcessOnMarker1144" markerUnits="userSpaceOnUse" orient="auto" markerWidth="16.23606797749979" markerHeight="10.550836550532098" viewBox="-1.0 -1.3763819204711736 16.23606797749979 10.550836550532098" refX="-1.0" refY="3.8990363547948754"><path id="ProcessOnPath1145" d="M12.0 3.8990363547948754L0.0 7.798072709589751V0.0Z" stroke="#323232" stroke-width="2.0" fill="#323232" transform="matrix(1.0,0.0,0.0,1.0,0.0,0.0)"/></marker></defs><g id="ProcessOnG1002"><path id="ProcessOnPath1003" d="M272.0 77.0H787.0V1380.0H272.0V77.0Z" fill="none"/><g id="ProcessOnG1004"><g id="ProcessOnG1005" transform="matrix(1.0,0.0,0.0,1.0,292.0,482.0)" opacity="1.0"><path id="ProcessOnPath1006" d="M0.0 0.0L475.0 0.0L475.0 878.0L0.0 878.0Z" stroke="#323232" stroke-width="2.0" stroke-dasharray="none" opacity="1.0" fill="#ffffff"/></g><g id="ProcessOnG1007" transform="matrix(1.0,0.0,0.0,1.0,292.0,97.0)" opacity="1.0"><path id="ProcessOnPath1008" d="M0.0 0.0L475.0 0.0L475.0 379.0L0.0 379.0Z" stroke="#323232" stroke-width="2.0" stroke-dasharray="none" opacity="1.0" fill="#ffffff"/></g><g id="ProcessOnG1009" transform="matrix(1.0,0.0,0.0,1.0,307.0,107.0)" opacity="1.0"><path id="ProcessOnPath1010" d="M0.0 0.0L282.0 0.0L282.0 69.0L0.0 69.0Z" stroke="#323232" stroke-width="2.0" stroke-dasharray="none" opacity="1.0" fill="#ffffff"/><g id="ProcessOnG1011" transform="matrix(1.0,0.0,0.0,1.0,10.0,12.0)"><text id="ProcessOnText1012" fill="#000000" font-size="18" x="130.0" y="18.45" font-family="微软雅黑" font-weight="normal" font-style="normal" text-decoration="none" family="微软雅黑" text-anchor="middle" size="18">将BindType的className，typ</text><text id="ProcessOnText1013" fill="#000000" font-size="18" x="130.0" y="40.95" font-family="微软雅黑" font-weight="normal" font-style="normal" text-decoration="none" family="微软雅黑" text-anchor="middle" size="18">e等信息放入ToLuaExport中</text></g></g><g id="ProcessOnG1014" transform="matrix(1.0,0.0,0.0,1.0,307.0,194.0)" opacity="1.0"><path id="ProcessOnPath1015" d="M0.0 0.0L282.0 0.0L282.0 99.0L0.0 99.0Z" stroke="#323232" stroke-width="2.0" stroke-dasharray="none" opacity="1.0" fill="#ffffff"/><g id="ProcessOnG1016" transform="matrix(1.0,0.0,0.0,1.0,10.0,4.5)"><text id="ProcessOnText1017" fill="#000000" font-size="18" x="130.0" y="18.45" font-family="微软雅黑" font-weight="normal" font-style="normal" text-decoration="none" family="微软雅黑" text-anchor="middle" size="18">InitMethods()</text><text id="ProcessOnText1018" fill="#000000" font-size="18" x="130.0" y="40.95" font-family="微软雅黑" font-weight="normal" font-style="normal" text-decoration="none" family="微软雅黑" text-anchor="middle" size="18">生成方法信息列表</text><text id="ProcessOnText1019" fill="#000000" font-size="18" x="130.0" y="63.45" font-family="微软雅黑" font-weight="normal" font-style="normal" text-decoration="none" family="微软雅黑" text-anchor="middle" size="18">包含成员方法和属性get，set方</text><text id="ProcessOnText1020" fill="#000000" font-size="18" x="130.0" y="85.95" font-family="微软雅黑" font-weight="normal" font-style="normal" text-decoration="none" family="微软雅黑" text-anchor="middle" size="18">法</text></g></g><g id="ProcessOnG1021" transform="matrix(1.0,0.0,0.0,1.0,307.0,308.0)" opacity="1.0"><path id="ProcessOnPath1022" d="M0.0 0.0L282.0 0.0L282.0 69.0L0.0 69.0Z" stroke="#323232" stroke-width="2.0" stroke-dasharray="none" opacity="1.0" fill="#ffffff"/><g id="ProcessOnG1023" transform="matrix(1.0,0.0,0.0,1.0,10.0,12.0)"><text id="ProcessOnText1024" fill="#000000" font-size="18" x="130.0" y="18.45" font-family="微软雅黑" font-weight="normal" font-style="normal" text-decoration="none" family="微软雅黑" text-anchor="middle" size="18">InitPropertyList()</text><text id="ProcessOnText1025" fill="#000000" font-size="18" x="130.0" y="40.95" font-family="微软雅黑" font-weight="normal" font-style="normal" text-decoration="none" family="微软雅黑" text-anchor="middle" size="18">生成属性信息列表</text></g></g><g id="ProcessOnG1026" transform="matrix(1.0,0.0,0.0,1.0,307.0,395.0)" opacity="1.0"><path id="ProcessOnPath1027" d="M0.0 0.0L282.0 0.0L282.0 69.0L0.0 69.0Z" stroke="#323232" stroke-width="2.0" stroke-dasharray="none" opacity="1.0" fill="#ffffff"/><g id="ProcessOnG1028" transform="matrix(1.0,0.0,0.0,1.0,10.0,12.0)"><text id="ProcessOnText1029" fill="#000000" font-size="18" x="130.0" y="18.45" font-family="微软雅黑" font-weight="normal" font-style="normal" text-decoration="none" family="微软雅黑" text-anchor="middle" size="18">InitCtorList()</text><text id="ProcessOnText1030" fill="#000000" font-size="18" x="130.0" y="40.95" font-family="微软雅黑" font-weight="normal" font-style="normal" text-decoration="none" family="微软雅黑" text-anchor="middle" size="18">生成构造函数信息列表</text></g></g><g id="ProcessOnG1031" transform="matrix(1.0,0.0,0.0,1.0,307.0,488.0)" opacity="1.0"><path id="ProcessOnPath1032" d="M0.0 0.0L282.0 0.0L282.0 69.0L0.0 69.0Z" stroke="#323232" stroke-width="2.0" stroke-dasharray="none" opacity="1.0" fill="#ffffff"/><g id="ProcessOnG1033" transform="matrix(1.0,0.0,0.0,1.0,10.0,12.0)"><text id="ProcessOnText1034" fill="#000000" font-size="18" x="130.0" y="18.45" font-family="微软雅黑" font-weight="normal" font-style="normal" text-decoration="none" family="微软雅黑" text-anchor="middle" size="18">BeginCodeGen()</text><text id="ProcessOnText1035" fill="#000000" font-size="18" x="130.0" y="40.95" font-family="微软雅黑" font-weight="normal" font-style="normal" text-decoration="none" family="微软雅黑" text-anchor="middle" size="18">生成类名</text></g></g><g id="ProcessOnG1036" transform="matrix(1.0,0.0,0.0,1.0,307.0,573.0)" opacity="1.0"><path id="ProcessOnPath1037" d="M0.0 0.0L282.0 0.0L282.0 69.0L0.0 69.0Z" stroke="#323232" stroke-width="2.0" stroke-dasharray="none" opacity="1.0" fill="#ffffff"/><g id="ProcessOnG1038" transform="matrix(1.0,0.0,0.0,1.0,10.0,12.0)"><text id="ProcessOnText1039" fill="#000000" font-size="18" x="130.0" y="18.45" font-family="微软雅黑" font-weight="normal" font-style="normal" text-decoration="none" family="微软雅黑" text-anchor="middle" size="18">GenRegisterFunction()</text><text id="ProcessOnText1040" fill="#000000" font-size="18" x="130.0" y="40.95" font-family="微软雅黑" font-weight="normal" font-style="normal" text-decoration="none" family="微软雅黑" text-anchor="middle" size="18">生成向lua注册的绑定函数</text></g></g><g id="ProcessOnG1041" transform="matrix(1.0,0.0,0.0,1.0,307.0,659.0)" opacity="1.0"><path id="ProcessOnPath1042" d="M0.0 0.0L282.0 0.0L282.0 69.0L0.0 69.0Z" stroke="#323232" stroke-width="2.0" stroke-dasharray="none" opacity="1.0" fill="#ffffff"/><g id="ProcessOnG1043" transform="matrix(1.0,0.0,0.0,1.0,10.0,12.0)"><text id="ProcessOnText1044" fill="#000000" font-size="18" x="130.0" y="18.45" font-family="微软雅黑" font-weight="normal" font-style="normal" text-decoration="none" family="微软雅黑" text-anchor="middle" size="18">GenConstructFunction()</text><text id="ProcessOnText1045" fill="#000000" font-size="18" x="130.0" y="40.95" font-family="微软雅黑" font-weight="normal" font-style="normal" text-decoration="none" family="微软雅黑" text-anchor="middle" size="18">生成构造绑定函数</text></g></g><g id="ProcessOnG1046" transform="matrix(1.0,0.0,0.0,1.0,307.0,749.0)" opacity="1.0"><path id="ProcessOnPath1047" d="M0.0 0.0L282.0 0.0L282.0 69.0L0.0 69.0Z" stroke="#323232" stroke-width="2.0" stroke-dasharray="none" opacity="1.0" fill="#ffffff"/><g id="ProcessOnG1048" transform="matrix(1.0,0.0,0.0,1.0,10.0,12.0)"><text id="ProcessOnText1049" fill="#000000" font-size="18" x="130.0" y="18.45" font-family="微软雅黑" font-weight="normal" font-style="normal" text-decoration="none" family="微软雅黑" text-anchor="middle" size="18">GenItemPropertyFunction()</text><text id="ProcessOnText1050" fill="#000000" font-size="18" x="130.0" y="40.95" font-family="微软雅黑" font-weight="normal" font-style="normal" text-decoration="none" family="微软雅黑" text-anchor="middle" size="18">生成this[]绑定函数</text></g></g><g id="ProcessOnG1051" transform="matrix(1.0,0.0,0.0,1.0,307.0,834.0)" opacity="1.0"><path id="ProcessOnPath1052" d="M0.0 0.0L282.0 0.0L282.0 69.0L0.0 69.0Z" stroke="#323232" stroke-width="2.0" stroke-dasharray="none" opacity="1.0" fill="#ffffff"/><g id="ProcessOnG1053" transform="matrix(1.0,0.0,0.0,1.0,10.0,12.0)"><text id="ProcessOnText1054" fill="#000000" font-size="18" x="130.0" y="18.45" font-family="微软雅黑" font-weight="normal" font-style="normal" text-decoration="none" family="微软雅黑" text-anchor="middle" size="18">GenFunctions()</text><text id="ProcessOnText1055" fill="#000000" font-size="18" x="130.0" y="40.95" font-family="微软雅黑" font-weight="normal" font-style="normal" text-decoration="none" family="微软雅黑" text-anchor="middle" size="18">生成其他函数</text></g></g><g id="ProcessOnG1056" transform="matrix(1.0,0.0,0.0,1.0,307.0,921.0)" opacity="1.0"><path id="ProcessOnPath1057" d="M0.0 0.0L282.0 0.0L282.0 69.0L0.0 69.0Z" stroke="#323232" stroke-width="2.0" stroke-dasharray="none" opacity="1.0" fill="#ffffff"/><g id="ProcessOnG1058" transform="matrix(1.0,0.0,0.0,1.0,10.0,12.0)"><text id="ProcessOnText1059" fill="#000000" font-size="18" x="130.0" y="18.45" font-family="微软雅黑" font-weight="normal" font-style="normal" text-decoration="none" family="微软雅黑" text-anchor="middle" size="18">GenIndexFunc()</text><text id="ProcessOnText1060" fill="#000000" font-size="18" x="130.0" y="40.95" font-family="微软雅黑" font-weight="normal" font-style="normal" text-decoration="none" family="微软雅黑" text-anchor="middle" size="18">生成每个变量的get函数</text></g></g><g id="ProcessOnG1061" transform="matrix(1.0,0.0,0.0,1.0,307.0,1008.0)" opacity="1.0"><path id="ProcessOnPath1062" d="M0.0 0.0L282.0 0.0L282.0 69.0L0.0 69.0Z" stroke="#323232" stroke-width="2.0" stroke-dasharray="none" opacity="1.0" fill="#ffffff"/><g id="ProcessOnG1063" transform="matrix(1.0,0.0,0.0,1.0,10.0,12.0)"><text id="ProcessOnText1064" fill="#000000" font-size="18" x="130.0" y="18.45" font-family="微软雅黑" font-weight="normal" font-style="normal" text-decoration="none" family="微软雅黑" text-anchor="middle" size="18">GenNewIndexFunc()</text><text id="ProcessOnText1065" fill="#000000" font-size="18" x="130.0" y="40.95" font-family="微软雅黑" font-weight="normal" font-style="normal" text-decoration="none" family="微软雅黑" text-anchor="middle" size="18">生成每个变量的set函数</text></g></g><g id="ProcessOnG1066" transform="matrix(1.0,0.0,0.0,1.0,307.0,1097.0)" opacity="1.0"><path id="ProcessOnPath1067" d="M0.0 0.0L282.0 0.0L282.0 69.0L0.0 69.0Z" stroke="#323232" stroke-width="2.0" stroke-dasharray="none" opacity="1.0" fill="#ffffff"/><g id="ProcessOnG1068" transform="matrix(1.0,0.0,0.0,1.0,10.0,0.75)"><text id="ProcessOnText1069" fill="#000000" font-size="18" x="130.0" y="18.45" font-family="微软雅黑" font-weight="normal" font-style="normal" text-decoration="none" family="微软雅黑" text-anchor="middle" size="18">GenOutFunction()</text><text id="ProcessOnText1070" fill="#000000" font-size="18" x="130.0" y="40.95" font-family="微软雅黑" font-weight="normal" font-style="normal" text-decoration="none" family="微软雅黑" text-anchor="middle" size="18">注册带out参数的函数，out的参</text><text id="ProcessOnText1071" fill="#000000" font-size="18" x="130.0" y="63.45" font-family="微软雅黑" font-weight="normal" font-style="normal" text-decoration="none" family="微软雅黑" text-anchor="middle" size="18">数作为额外的参数返回给lua</text></g></g><g id="ProcessOnG1072" transform="matrix(1.0,0.0,0.0,1.0,307.0,1189.0)" opacity="1.0"><path id="ProcessOnPath1073" d="M0.0 0.0L282.0 0.0L282.0 69.0L0.0 69.0Z" stroke="#323232" stroke-width="2.0" stroke-dasharray="none" opacity="1.0" fill="#ffffff"/><g id="ProcessOnG1074" transform="matrix(1.0,0.0,0.0,1.0,10.0,12.0)"><text id="ProcessOnText1075" fill="#000000" font-size="18" x="130.0" y="18.45" font-family="微软雅黑" font-weight="normal" font-style="normal" text-decoration="none" family="微软雅黑" text-anchor="middle" size="18">GenEventFunctions()</text><text id="ProcessOnText1076" fill="#000000" font-size="18" x="130.0" y="40.95" font-family="微软雅黑" font-weight="normal" font-style="normal" text-decoration="none" family="微软雅黑" text-anchor="middle" size="18">生成类中的委托绑定函数</text></g></g><g id="ProcessOnG1077" transform="matrix(1.0,0.0,0.0,1.0,307.0,1278.0)" opacity="1.0"><path id="ProcessOnPath1078" d="M0.0 0.0L282.0 0.0L282.0 69.0L0.0 69.0Z" stroke="#323232" stroke-width="2.0" stroke-dasharray="none" opacity="1.0" fill="#ffffff"/><g id="ProcessOnG1079" transform="matrix(1.0,0.0,0.0,1.0,10.0,0.75)"><text id="ProcessOnText1080" fill="#000000" font-size="18" x="130.0" y="18.45" font-family="微软雅黑" font-weight="normal" font-style="normal" text-decoration="none" family="微软雅黑" text-anchor="middle" size="18">GenFunctions()</text><text id="ProcessOnText1081" fill="#000000" font-size="18" x="130.0" y="40.95" font-family="微软雅黑" font-weight="normal" font-style="normal" text-decoration="none" family="微软雅黑" text-anchor="middle" size="18">结束wrap文件的生成，并保存为</text><text id="ProcessOnText1082" fill="#000000" font-size="18" x="130.0" y="63.45" font-family="微软雅黑" font-weight="normal" font-style="normal" text-decoration="none" family="微软雅黑" text-anchor="middle" size="18">一个wrap.cs文件</text></g></g><g id="ProcessOnG1083" transform="matrix(1.0,0.0,0.0,1.0,645.0,261.5)" opacity="1.0"><path id="ProcessOnPath1084" d="M0.0 0.0L100.0 0.0L100.0 70.0L0.0 70.0Z" stroke="#ffffff" stroke-width="2.0" stroke-dasharray="none" opacity="1.0" fill="#ffffff"/><g id="ProcessOnG1085" transform="matrix(1.0,0.0,0.0,1.0,10.0,12.5)"><text id="ProcessOnText1086" fill="#000000" font-size="18" x="39.0" y="18.45" font-family="微软雅黑" font-weight="normal" font-style="normal" text-decoration="none" family="微软雅黑" text-anchor="middle" size="18">生成前的</text><text id="ProcessOnText1087" fill="#000000" font-size="18" x="39.0" y="40.95" font-family="微软雅黑" font-weight="normal" font-style="normal" text-decoration="none" family="微软雅黑" text-anchor="middle" size="18">准备工作</text></g></g><g id="ProcessOnG1088" transform="matrix(1.0,0.0,0.0,1.0,642.0,739.5)" opacity="1.0"><path id="ProcessOnPath1089" d="M0.0 0.0L106.0 0.0L106.0 67.5L0.0 67.5Z" stroke="#ffffff" stroke-width="2.0" stroke-dasharray="none" opacity="1.0" fill="#ffffff"/><g id="ProcessOnG1090" transform="matrix(1.0,0.0,0.0,1.0,10.0,0.0)"><text id="ProcessOnText1091" fill="#000000" font-size="18" x="42.0" y="18.45" font-family="微软雅黑" font-weight="normal" font-style="normal" text-decoration="none" family="微软雅黑" text-anchor="middle" size="18">生成对应</text><text id="ProcessOnText1092" fill="#000000" font-size="18" x="42.0" y="40.95" font-family="微软雅黑" font-weight="normal" font-style="normal" text-decoration="none" family="微软雅黑" text-anchor="middle" size="18">的wrap文</text><text id="ProcessOnText1093" fill="#000000" font-size="18" x="42.0" y="63.45" font-family="微软雅黑" font-weight="normal" font-style="normal" text-decoration="none" family="微软雅黑" text-anchor="middle" size="18">件代码</text></g></g><g id="ProcessOnG1094"><path id="ProcessOnPath1095" d="M448.0 176.0L448.0 185.0L448.0 185.0L448.0 186.0" stroke="#323232" stroke-width="2.0" stroke-dasharray="none" fill="none" marker-end="url(#ProcessOnMarker1096)"/></g><g id="ProcessOnG1098"><path id="ProcessOnPath1099" d="M448.0 293.0L448.0 300.5L448.0 300.5L448.0 301.5" stroke="#323232" stroke-width="2.0" stroke-dasharray="none" fill="none" marker-end="url(#ProcessOnMarker1100)"/></g><g id="ProcessOnG1102"><path id="ProcessOnPath1103" d="M448.0 377.0L448.0 386.0L448.0 386.0L448.0 387.0" stroke="#323232" stroke-width="2.0" stroke-dasharray="none" fill="none" marker-end="url(#ProcessOnMarker1104)"/></g><g id="ProcessOnG1106"><path id="ProcessOnPath1107" d="M448.0 464.0L448.0 476.0L448.0 476.0L448.0 477.0" stroke="#323232" stroke-width="2.0" stroke-dasharray="none" fill="none" marker-end="url(#ProcessOnMarker1108)"/></g><g id="ProcessOnG1110"><path id="ProcessOnPath1111" d="M448.0 557.0L448.0 565.0L448.0 565.0L448.0 566.0" stroke="#323232" stroke-width="2.0" stroke-dasharray="none" fill="none" marker-end="url(#ProcessOnMarker1112)"/></g><g id="ProcessOnG1114"><path id="ProcessOnPath1115" d="M448.0 642.0L448.0 650.5L448.0 650.5L448.0 651.5" stroke="#323232" stroke-width="2.0" stroke-dasharray="none" fill="none" marker-end="url(#ProcessOnMarker1116)"/></g><g id="ProcessOnG1118"><path id="ProcessOnPath1119" d="M448.0 728.0L448.0 738.5L448.0 738.5L448.0 739.5" stroke="#323232" stroke-width="2.0" stroke-dasharray="none" fill="none" marker-end="url(#ProcessOnMarker1120)"/></g><g id="ProcessOnG1122"><path id="ProcessOnPath1123" d="M448.0 818.0L448.0 826.0L448.0 826.0L448.0 827.0" stroke="#323232" stroke-width="2.0" stroke-dasharray="none" fill="none" marker-end="url(#ProcessOnMarker1124)"/></g><g id="ProcessOnG1126"><path id="ProcessOnPath1127" d="M448.0 903.0L448.0 912.0L448.0 912.0L448.0 913.0" stroke="#323232" stroke-width="2.0" stroke-dasharray="none" fill="none" marker-end="url(#ProcessOnMarker1128)"/></g><g id="ProcessOnG1130"><path id="ProcessOnPath1131" d="M448.0 990.0L448.0 999.0L448.0 999.0L448.0 1000.0" stroke="#323232" stroke-width="2.0" stroke-dasharray="none" fill="none" marker-end="url(#ProcessOnMarker1132)"/></g><g id="ProcessOnG1134"><path id="ProcessOnPath1135" d="M448.0 1077.0L448.0 1087.0L448.0 1087.0L448.0 1088.0" stroke="#323232" stroke-width="2.0" stroke-dasharray="none" fill="none" marker-end="url(#ProcessOnMarker1136)"/></g><g id="ProcessOnG1138"><path id="ProcessOnPath1139" d="M448.0 1166.0L448.0 1177.5L448.0 1177.5L448.0 1178.5" stroke="#323232" stroke-width="2.0" stroke-dasharray="none" fill="none" marker-end="url(#ProcessOnMarker1140)"/></g><g id="ProcessOnG1142"><path id="ProcessOnPath1143" d="M448.0 1258.0L448.0 1268.0L448.0 1268.0L448.0 1269.0" stroke="#323232" stroke-width="2.0" stroke-dasharray="none" fill="none" marker-end="url(#ProcessOnMarker1144)"/></g></g></g></svg>