<svg xmlns="http://www.w3.org/2000/svg" xmlns:xlink="http://www.w3.org/1999/xlink" id="processonSvg1000" viewBox="350.0 61.0 313.0 540.0" width="313.0" height="540.0"><defs id="ProcessOnDefs1001"><marker id="ProcessOnMarker1029" markerUnits="userSpaceOnUse" orient="auto" markerWidth="16.23606797749979" markerHeight="10.550836550532098" viewBox="-1.0 -1.3763819204711736 16.23606797749979 10.550836550532098" refX="-1.0" refY="3.8990363547948754"><path id="ProcessOnPath1030" d="M12.0 3.8990363547948754L0.0 7.798072709589751V0.0Z" stroke="#323232" stroke-width="2.0" fill="#323232" transform="matrix(1.0,0.0,0.0,1.0,0.0,0.0)"/></marker><marker id="ProcessOnMarker1033" markerUnits="userSpaceOnUse" orient="auto" markerWidth="16.23606797749979" markerHeight="10.550836550532098" viewBox="-1.0 -1.3763819204711736 16.23606797749979 10.550836550532098" refX="-1.0" refY="3.8990363547948754"><path id="ProcessOnPath1034" d="M12.0 3.8990363547948754L0.0 7.798072709589751V0.0Z" stroke="#323232" stroke-width="2.0" fill="#323232" transform="matrix(1.0,0.0,0.0,1.0,0.0,0.0)"/></marker><marker id="ProcessOnMarker1037" markerUnits="userSpaceOnUse" orient="auto" markerWidth="16.23606797749979" markerHeight="10.550836550532098" viewBox="-1.0 -1.3763819204711736 16.23606797749979 10.550836550532098" refX="-1.0" refY="3.8990363547948754"><path id="ProcessOnPath1038" d="M12.0 3.8990363547948754L0.0 7.798072709589751V0.0Z" stroke="#323232" stroke-width="2.0" fill="#323232" transform="matrix(1.0,0.0,0.0,1.0,0.0,0.0)"/></marker></defs><g id="ProcessOnG1002"><path id="ProcessOnPath1003" d="M350.0 61.0H663.0V601.0H350.0V61.0Z" fill="none"/><g id="ProcessOnG1004"><g id="ProcessOnG1005" transform="matrix(1.0,0.0,0.0,1.0,370.0,81.0)" opacity="1.0"><path id="ProcessOnPath1006" d="M0.0 0.0L273.0 0.0L273.0 89.21933085501858L0.0 89.21933085501858Z" stroke="#323232" stroke-width="2.0" stroke-dasharray="none" opacity="1.0" fill="#ffffff"/><g id="ProcessOnG1007" transform="matrix(1.0,0.0,0.0,1.0,10.0,22.10966542750929)"><text id="ProcessOnText1008" fill="#000000" font-size="18" x="125.5" y="18.45" font-family="微软雅黑" font-weight="normal" font-style="normal" text-decoration="none" family="微软雅黑" text-anchor="middle" size="18">在CustomSetting.cs中添加需</text><text id="ProcessOnText1009" fill="#000000" font-size="18" x="125.5" y="40.95" font-family="微软雅黑" font-weight="normal" font-style="normal" text-decoration="none" family="微软雅黑" text-anchor="middle" size="18">要生成wrap文件的c#类</text></g></g><g id="ProcessOnG1010" transform="matrix(1.0,0.0,0.0,1.0,370.0,207.39405204460965)" opacity="1.0"><path id="ProcessOnPath1011" d="M0.0 0.0L273.0 0.0L273.0 90.14869888475836L0.0 90.14869888475836Z" stroke="#323232" stroke-width="2.0" stroke-dasharray="none" opacity="1.0" fill="#ffffff"/><g id="ProcessOnG1012" transform="matrix(1.0,0.0,0.0,1.0,10.0,22.57434944237918)"><text id="ProcessOnText1013" fill="#000000" font-size="18" x="125.5" y="18.45" font-family="微软雅黑" font-weight="normal" font-style="normal" text-decoration="none" family="微软雅黑" text-anchor="middle" size="18">通过GenerateClassWraps()生</text><text id="ProcessOnText1014" fill="#000000" font-size="18" x="125.5" y="40.95" font-family="微软雅黑" font-weight="normal" font-style="normal" text-decoration="none" family="微软雅黑" text-anchor="middle" size="18">成每个需要导出类的wrap文件</text></g></g><g id="ProcessOnG1015" transform="matrix(1.0,0.0,0.0,1.0,370.0,333.7881040892193)" opacity="1.0"><path id="ProcessOnPath1016" d="M0.0 0.0L273.0 0.0L273.0 93.86617100371747L0.0 93.86617100371747Z" stroke="#323232" stroke-width="2.0" stroke-dasharray="none" opacity="1.0" fill="#ffffff"/><g id="ProcessOnG1017" transform="matrix(1.0,0.0,0.0,1.0,10.0,13.183085501858734)"><text id="ProcessOnText1018" fill="#000000" font-size="18" x="125.5" y="18.45" font-family="微软雅黑" font-weight="normal" font-style="normal" text-decoration="none" family="微软雅黑" text-anchor="middle" size="18">通过GenLuaBinder()生成绑定</text><text id="ProcessOnText1019" fill="#000000" font-size="18" x="125.5" y="40.95" font-family="微软雅黑" font-weight="normal" font-style="normal" text-decoration="none" family="微软雅黑" text-anchor="middle" size="18">类，用于开启lua虚拟机时导入</text><text id="ProcessOnText1020" fill="#000000" font-size="18" x="125.5" y="63.45" font-family="微软雅黑" font-weight="normal" font-style="normal" text-decoration="none" family="微软雅黑" text-anchor="middle" size="18">注册类</text></g></g><g id="ProcessOnG1021" transform="matrix(1.0,0.0,0.0,1.0,370.0,469.47583643122675)" opacity="1.0"><path id="ProcessOnPath1022" d="M0.0 0.0L273.0 0.0L273.0 111.52416356877323L0.0 111.52416356877323Z" stroke="#323232" stroke-width="2.0" stroke-dasharray="none" opacity="1.0" fill="#ffffff"/><g id="ProcessOnG1023" transform="matrix(1.0,0.0,0.0,1.0,10.0,22.012081784386616)"><text id="ProcessOnText1024" fill="#000000" font-size="18" x="125.5" y="18.45" font-family="微软雅黑" font-weight="normal" font-style="normal" text-decoration="none" family="微软雅黑" text-anchor="middle" size="18">在开启lua虚拟机时通过LuaBin</text><text id="ProcessOnText1025" fill="#000000" font-size="18" x="125.5" y="40.95" font-family="微软雅黑" font-weight="normal" font-style="normal" text-decoration="none" family="微软雅黑" text-anchor="middle" size="18">der.Bind(LuaState L)将需要导</text><text id="ProcessOnText1026" fill="#000000" font-size="18" x="125.5" y="63.45" font-family="微软雅黑" font-weight="normal" font-style="normal" text-decoration="none" family="微软雅黑" text-anchor="middle" size="18">出的类注册到lua虚拟机中。</text></g></g><g id="ProcessOnG1027"><path id="ProcessOnPath1028" d="M506.5 170.2193308550186L506.5 188.80669144981414L506.5 188.80669144981414L506.5 192.15798406710985" stroke="#323232" stroke-width="2.0" stroke-dasharray="none" fill="none" marker-end="url(#ProcessOnMarker1029)"/></g><g id="ProcessOnG1031"><path id="ProcessOnPath1032" d="M506.5 297.542750929368L506.5 315.66542750929364L506.5 315.66542750929364L506.5 318.55203611171953" stroke="#323232" stroke-width="2.0" stroke-dasharray="none" fill="none" marker-end="url(#ProcessOnMarker1033)"/></g><g id="ProcessOnG1035"><path id="ProcessOnPath1036" d="M506.5 427.65427509293676L506.5 448.5650557620818L506.5 448.5650557620818L506.5 454.239768453727" stroke="#323232" stroke-width="2.0" stroke-dasharray="none" fill="none" marker-end="url(#ProcessOnMarker1037)"/></g></g></g></svg>