<svg xmlns="http://www.w3.org/2000/svg" xmlns:xlink="http://www.w3.org/1999/xlink" id="processonSvg1000" viewBox="25.78571428571425 3.0 1022.0813467843193 944.544686514805" width="1022.0813467843193" height="944.544686514805"><defs id="ProcessOnDefs1001"><marker id="ProcessOnMarker1035" markerUnits="userSpaceOnUse" orient="auto" markerWidth="16.23606797749979" markerHeight="10.550836550532098" viewBox="-1.0 -1.3763819204711736 16.23606797749979 10.550836550532098" refX="-1.0" refY="3.8990363547948754"><path id="ProcessOnPath1036" d="M12.0 3.8990363547948754L0.0 7.798072709589751V0.0Z" stroke="#323232" stroke-width="2.0" fill="#323232" transform="matrix(1.0,0.0,0.0,1.0,0.0,0.0)"/></marker><marker id="ProcessOnMarker1039" markerUnits="userSpaceOnUse" orient="auto" markerWidth="16.23606797749979" markerHeight="10.550836550532098" viewBox="-1.0 -1.3763819204711736 16.23606797749979 10.550836550532098" refX="-1.0" refY="3.8990363547948754"><path id="ProcessOnPath1040" d="M12.0 3.8990363547948754L0.0 7.798072709589751V0.0Z" stroke="#323232" stroke-width="2.0" fill="#323232" transform="matrix(1.0,0.0,0.0,1.0,0.0,0.0)"/></marker><marker id="ProcessOnMarker1043" markerUnits="userSpaceOnUse" orient="auto" markerWidth="16.23606797749979" markerHeight="10.550836550532098" viewBox="-1.0 -1.3763819204711736 16.23606797749979 10.550836550532098" refX="-1.0" refY="3.8990363547948754"><path id="ProcessOnPath1044" d="M12.0 3.8990363547948754L0.0 7.798072709589751V0.0Z" stroke="#323232" stroke-width="2.0" fill="#323232" transform="matrix(1.0,0.0,0.0,1.0,0.0,0.0)"/></marker><marker id="ProcessOnMarker1047" markerUnits="userSpaceOnUse" orient="auto" markerWidth="16.23606797749979" markerHeight="10.550836550532098" viewBox="-1.0 -1.3763819204711736 16.23606797749979 10.550836550532098" refX="-1.0" refY="3.8990363547948754"><path id="ProcessOnPath1048" d="M12.0 3.8990363547948754L0.0 7.798072709589751V0.0Z" stroke="#323232" stroke-width="2.0" fill="#323232" transform="matrix(1.0,0.0,0.0,1.0,0.0,0.0)"/></marker><marker id="ProcessOnMarker1051" markerUnits="userSpaceOnUse" orient="auto" markerWidth="16.23606797749979" markerHeight="10.550836550532098" viewBox="-1.0 -1.3763819204711736 16.23606797749979 10.550836550532098" refX="-1.0" refY="3.8990363547948754"><path id="ProcessOnPath1052" d="M12.0 3.8990363547948754L0.0 7.798072709589751V0.0Z" stroke="#323232" stroke-width="2.0" fill="#323232" transform="matrix(1.0,0.0,0.0,1.0,0.0,0.0)"/></marker><marker id="ProcessOnMarker1070" markerUnits="userSpaceOnUse" orient="auto" markerWidth="16.23606797749979" markerHeight="10.550836550532098" viewBox="-1.0 -1.3763819204711736 16.23606797749979 10.550836550532098" refX="-1.0" refY="3.8990363547948754"><path id="ProcessOnPath1071" d="M12.0 3.8990363547948754L0.0 7.798072709589751V0.0Z" stroke="#ff3333" stroke-width="2.0" fill="#ff3333" transform="matrix(1.0,0.0,0.0,1.0,0.0,0.0)"/></marker><marker id="ProcessOnMarker1074" markerUnits="userSpaceOnUse" orient="auto" markerWidth="16.23606797749979" markerHeight="10.550836550532098" viewBox="-1.0 -1.3763819204711736 16.23606797749979 10.550836550532098" refX="-1.0" refY="3.8990363547948754"><path id="ProcessOnPath1075" d="M12.0 3.8990363547948754L0.0 7.798072709589751V0.0Z" stroke="#ff3333" stroke-width="2.0" fill="#ff3333" transform="matrix(1.0,0.0,0.0,1.0,0.0,0.0)"/></marker><marker id="ProcessOnMarker1090" markerUnits="userSpaceOnUse" orient="auto" markerWidth="16.23606797749979" markerHeight="10.550836550532098" viewBox="-1.0 -1.3763819204711736 16.23606797749979 10.550836550532098" refX="-1.0" refY="3.8990363547948754"><path id="ProcessOnPath1091" d="M12.0 3.8990363547948754L0.0 7.798072709589751V0.0Z" stroke="#ff3333" stroke-width="2.0" fill="#ff3333" transform="matrix(1.0,0.0,0.0,1.0,0.0,0.0)"/></marker><marker id="ProcessOnMarker1115" markerUnits="userSpaceOnUse" orient="auto" markerWidth="16.23606797749979" markerHeight="10.550836550532098" viewBox="-1.0 -1.3763819204711736 16.23606797749979 10.550836550532098" refX="-1.0" refY="3.8990363547948754"><path id="ProcessOnPath1116" d="M12.0 3.8990363547948754L0.0 7.798072709589751V0.0Z" stroke="#ff3333" stroke-width="2.0" fill="#ff3333" transform="matrix(1.0,0.0,0.0,1.0,0.0,0.0)"/></marker><marker id="ProcessOnMarker1127" markerUnits="userSpaceOnUse" orient="auto" markerWidth="16.23606797749979" markerHeight="10.550836550532098" viewBox="-1.0 -1.3763819204711736 16.23606797749979 10.550836550532098" refX="-1.0" refY="3.8990363547948754"><path id="ProcessOnPath1128" d="M12.0 3.8990363547948754L0.0 7.798072709589751V0.0Z" stroke="#323232" stroke-width="2.0" fill="#323232" transform="matrix(1.0,0.0,0.0,1.0,0.0,0.0)"/></marker><marker id="ProcessOnMarker1135" markerUnits="userSpaceOnUse" orient="auto" markerWidth="16.23606797749979" markerHeight="10.550836550532098" viewBox="-1.0 -1.3763819204711736 16.23606797749979 10.550836550532098" refX="-1.0" refY="3.8990363547948754"><path id="ProcessOnPath1136" d="M12.0 3.8990363547948754L0.0 7.798072709589751V0.0Z" stroke="#ff3333" stroke-width="2.0" fill="#ff3333" transform="matrix(1.0,0.0,0.0,1.0,0.0,0.0)"/></marker><marker id="ProcessOnMarker1139" markerUnits="userSpaceOnUse" orient="auto" markerWidth="16.23606797749979" markerHeight="10.550836550532098" viewBox="-1.0 -1.3763819204711736 16.23606797749979 10.550836550532098" refX="-1.0" refY="3.8990363547948754"><path id="ProcessOnPath1140" d="M12.0 3.8990363547948754L0.0 7.798072709589751V0.0Z" stroke="#ff3333" stroke-width="2.0" fill="#ff3333" transform="matrix(1.0,0.0,0.0,1.0,0.0,0.0)"/></marker></defs><g id="ProcessOnG1002"><path id="ProcessOnPath1003" d="M25.78571428571425 3.0H1047.8670610700335V947.544686514805H25.78571428571422V3.0Z" fill="none"/><g id="ProcessOnG1004"><g id="ProcessOnG1005" transform="matrix(1.0,0.0,0.0,1.0,776.0,326.8808005192169)" opacity="1.0"><path id="ProcessOnPath1006" d="M0.0 0.0L208.85317557198698 0.0L208.85317557198698 92.63671823999687L0.0 92.63671823999687Z" stroke="#323232" stroke-width="2.0" stroke-dasharray="none" opacity="1.0" fill="#ffffff"/><g id="ProcessOnG1007" transform="matrix(1.0,0.0,0.0,1.0,10.0,36.31835911999843)"><text id="ProcessOnText1008" fill="#000000" font-size="16" x="93.42658778599349" y="16.4" font-family="微软雅黑" font-weight="normal" font-style="normal" text-decoration="none" family="微软雅黑" text-anchor="middle" size="16">translator.objects表</text></g></g><g id="ProcessOnG1009" transform="matrix(1.0,0.0,0.0,1.0,82.78571428571425,95.0)" opacity="1.0"><path id="ProcessOnPath1010" d="M0.0 0.0L280.3633796536185 0.0L280.3633796536185 71.45088740757535L0.0 71.45088740757535Z" stroke="#323232" stroke-width="2.0" stroke-dasharray="none" opacity="1.0" fill="#ffffff"/><g id="ProcessOnG1011" transform="matrix(1.0,0.0,0.0,1.0,10.0,5.7254437037876755)"><text id="ProcessOnText1012" fill="#000000" font-size="16" x="129.18168982680925" y="16.4" font-family="微软雅黑" font-weight="normal" font-style="normal" text-decoration="none" family="微软雅黑" text-anchor="middle" size="16">调用UnityEngine.GameObject("te</text><text id="ProcessOnText1013" fill="#000000" font-size="16" x="129.18168982680925" y="36.4" font-family="微软雅黑" font-weight="normal" font-style="normal" text-decoration="none" family="微软雅黑" text-anchor="middle" size="16">mp")创建一个新的GameObject实</text><text id="ProcessOnText1014" fill="#000000" font-size="16" x="129.18168982680925" y="56.4" font-family="微软雅黑" font-weight="normal" font-style="normal" text-decoration="none" family="微软雅黑" text-anchor="middle" size="16">例</text></g></g><g id="ProcessOnG1015" transform="matrix(1.0,0.0,0.0,1.0,45.78571428571425,202.87945883614694)" opacity="1.0"><path id="ProcessOnPath1016" d="M0.0 0.0L354.3633796536185 0.0L354.3633796536185 79.99999999999989L0.0 79.99999999999989Z" stroke="#323232" stroke-width="2.0" stroke-dasharray="none" opacity="1.0" fill="#ffffff"/><g id="ProcessOnG1017" transform="matrix(1.0,0.0,0.0,1.0,10.0,9.999999999999943)"><text id="ProcessOnText1018" fill="#000000" font-size="16" x="166.18168982680925" y="16.4" font-family="微软雅黑" font-weight="normal" font-style="normal" text-decoration="none" family="微软雅黑" text-anchor="middle" size="16">在_CreateUnityEngine_GameObject(IntPtr L</text><text id="ProcessOnText1019" fill="#000000" font-size="16" x="166.18168982680925" y="36.4" font-family="微软雅黑" font-weight="normal" font-style="normal" text-decoration="none" family="微软雅黑" text-anchor="middle" size="16">)中创建一个GameObject实例，然后调用Push</text><text id="ProcessOnText1020" fill="#000000" font-size="16" x="166.18168982680925" y="56.4" font-family="微软雅黑" font-weight="normal" font-style="normal" text-decoration="none" family="微软雅黑" text-anchor="middle" size="16">Sealed函数</text></g></g><g id="ProcessOnG1021" transform="matrix(1.0,0.0,0.0,1.0,45.78571428571425,321.21856211225804)" opacity="1.0"><path id="ProcessOnPath1022" d="M0.0 0.0L354.3633796536185 0.0L354.3633796536185 79.99999999999989L0.0 79.99999999999989Z" stroke="#323232" stroke-width="2.0" stroke-dasharray="none" opacity="1.0" fill="#ffffff"/><g id="ProcessOnG1023" transform="matrix(1.0,0.0,0.0,1.0,10.0,-5.6843418860808015E-14)"><text id="ProcessOnText1024" fill="#000000" font-size="16" x="166.18168982680925" y="16.4" font-family="微软雅黑" font-weight="normal" font-style="normal" text-decoration="none" family="微软雅黑" text-anchor="middle" size="16">在PushSealed函数中将生成的实例加入object</text><text id="ProcessOnText1025" fill="#000000" font-size="16" x="166.18168982680925" y="36.4" font-family="微软雅黑" font-weight="normal" font-style="normal" text-decoration="none" family="微软雅黑" text-anchor="middle" size="16">s表中，并获得在表中的位置索引，然同通过Pu</text><text id="ProcessOnText1026" fill="#000000" font-size="16" x="166.18168982680925" y="56.4" font-family="微软雅黑" font-weight="normal" font-style="normal" text-decoration="none" family="微软雅黑" text-anchor="middle" size="16">shUserData将这个索引包装成一个fulluserdat</text><text id="ProcessOnText1027" fill="#000000" font-size="16" x="166.18168982680925" y="76.4" font-family="微软雅黑" font-weight="normal" font-style="normal" text-decoration="none" family="微软雅黑" text-anchor="middle" size="16">a后压栈返回给lua</text></g></g><g id="ProcessOnG1028" transform="matrix(1.0,0.0,0.0,1.0,45.78571428571425,614.3080302647184)" opacity="1.0"><path id="ProcessOnPath1029" d="M0.0 0.0L354.3633796536185 0.0L354.3633796536185 148.09525081089544L0.0 148.09525081089544Z" stroke="#323232" stroke-width="2.0" stroke-dasharray="none" opacity="1.0" fill="#ffffff"/><g id="ProcessOnG1030" transform="matrix(1.0,0.0,0.0,1.0,10.0,54.04762540544772)"><text id="ProcessOnText1031" fill="#000000" font-size="16" x="166.18168982680925" y="16.4" font-family="微软雅黑" font-weight="normal" font-style="normal" text-decoration="none" family="微软雅黑" text-anchor="middle" size="16">tempGameObject赋值为这个fulluserdata，</text><text id="ProcessOnText1032" fill="#000000" font-size="16" x="166.18168982680925" y="36.4" font-family="微软雅黑" font-weight="normal" font-style="normal" text-decoration="none" family="微软雅黑" text-anchor="middle" size="16">然后temp就代表了这个实例</text></g></g><g id="ProcessOnG1033"><path id="ProcessOnPath1034" d="M222.96740411252347 166.45088740757535L222.96740411252347 184.66517312186113L222.96740411252347 184.66517312186113L222.96740411252347 187.64339085864714" stroke="#323232" stroke-width="2.0" stroke-dasharray="none" fill="none" marker-end="url(#ProcessOnMarker1035)"/></g><g id="ProcessOnG1037"><path id="ProcessOnPath1038" d="M222.96740411252347 282.8794588361468L222.96740411252347 302.0490104742024L222.96740411252347 302.0490104742024L222.96740411252347 305.98249413475827" stroke="#323232" stroke-width="2.0" stroke-dasharray="none" fill="none" marker-end="url(#ProcessOnMarker1039)"/></g><g id="ProcessOnG1041"><path id="ProcessOnPath1042" d="M222.96740411252347 401.2185621122579L222.96740411252347 507.76329618848814L222.96740411252347 507.76329618848814L222.96740411252347 599.0719622872185" stroke="#323232" stroke-width="2.0" stroke-dasharray="none" fill="none" marker-end="url(#ProcessOnMarker1043)"/></g><g id="ProcessOnG1045"><path id="ProcessOnPath1046" d="M400.0813467843192 345.8159719194685L588.181546892439 345.8159719194685L588.181546892439 345.8159719194685L761.0456790230589 345.8159719194685" stroke="#323232" stroke-width="2.0" stroke-dasharray="none" fill="none" marker-end="url(#ProcessOnMarker1047)"/></g><g id="ProcessOnG1049"><path id="ProcessOnPath1050" d="M776.2817470005588 383.6731147766113L588.181546892439 383.6731147766113L588.181546892439 383.6731147766113L415.31741476181895 383.6731147766113" stroke="#323232" stroke-width="2.0" stroke-dasharray="none" fill="none" marker-end="url(#ProcessOnMarker1051)"/></g><g id="ProcessOnG1053" transform="matrix(1.0,0.0,0.0,1.0,662.8670610700344,302.9588290623256)" opacity="1.0"><path id="ProcessOnPath1054" d="M8.214285714285621 0.0L0.0 3.634920120239275L0.0 32.71428108215348L8.214285714285621 36.34920120239275M73.92857142857058 36.34920120239275L82.1428571428562 32.71428108215348L82.1428571428562 3.634920120239275L73.92857142857058 0.0" stroke="#323232" stroke-width="2.0" stroke-dasharray="none" opacity="1.0" fill="none"/><path id="ProcessOnPath1055" d="M0.0 0.0L82.1428571428562 0.0L82.1428571428562 36.34920120239275L0.0 36.34920120239275Z" stroke="none" stroke-width="0.0" stroke-dasharray="none" opacity="1.0" fill="none"/><g id="ProcessOnG1056" transform="matrix(1.0,0.0,0.0,1.0,10.0,10.049600601196374)"><text id="ProcessOnText1057" fill="#000000" font-size="13" x="30.0714285714281" y="13.325" font-family="微软雅黑" font-weight="normal" font-style="normal" text-decoration="none" family="微软雅黑" text-anchor="middle" size="13">加入实例</text></g></g><g id="ProcessOnG1058" transform="matrix(1.0,0.0,0.0,1.0,662.6629794373814,391.92932170295995)" opacity="1.0"><path id="ProcessOnPath1059" d="M8.214285714285621 0.0L0.0 3.634920120239275L0.0 32.71428108215348L8.214285714285621 36.34920120239275M73.92857142857058 36.34920120239275L82.1428571428562 32.71428108215348L82.1428571428562 3.634920120239275L73.92857142857058 0.0" stroke="#323232" stroke-width="2.0" stroke-dasharray="none" opacity="1.0" fill="none"/><path id="ProcessOnPath1060" d="M0.0 0.0L82.1428571428562 0.0L82.1428571428562 36.34920120239275L0.0 36.34920120239275Z" stroke="none" stroke-width="0.0" stroke-dasharray="none" opacity="1.0" fill="none"/><g id="ProcessOnG1061" transform="matrix(1.0,0.0,0.0,1.0,10.0,10.049600601196374)"><text id="ProcessOnText1062" fill="#000000" font-size="13" x="30.0714285714281" y="13.325" font-family="微软雅黑" font-weight="normal" font-style="normal" text-decoration="none" family="微软雅黑" text-anchor="middle" size="13">返回索引</text></g></g><g id="ProcessOnG1063" transform="matrix(1.0,0.0,0.0,1.0,776.0,641.857159363921)" opacity="1.0"><path id="ProcessOnPath1064" d="M0.0 0.0L208.85317557198698 0.0L208.85317557198698 92.63671823999687L0.0 92.63671823999687Z" stroke="#323232" stroke-width="2.0" stroke-dasharray="none" opacity="1.0" fill="#ffffff"/><g id="ProcessOnG1065" transform="matrix(1.0,0.0,0.0,1.0,10.0,26.318359119998433)"><text id="ProcessOnText1066" fill="#000000" font-size="16" x="93.42658778599349" y="16.4" font-family="微软雅黑" font-weight="normal" font-style="normal" text-decoration="none" family="微软雅黑" text-anchor="middle" size="16">调用Wrap文件的GetCom</text><text id="ProcessOnText1067" fill="#000000" font-size="16" x="93.42658778599349" y="36.4" font-family="微软雅黑" font-weight="normal" font-style="normal" text-decoration="none" family="微软雅黑" text-anchor="middle" size="16">ponent函数</text></g></g><g id="ProcessOnG1068"><path id="ProcessOnPath1069" d="M817.8670610700335 642.482639081695L817.8670610700335 530.6572457929401L817.7103184291302 530.6572457929401L817.7103184291302 434.06792048168506" stroke="#ff3333" stroke-width="2.0" stroke-dasharray="none" fill="none" marker-end="url(#ProcessOnMarker1070)"/></g><g id="ProcessOnG1072"><path id="ProcessOnPath1073" d="M944.295632498605 418.8318525041853L944.295632498605 530.6572457929401L944.295632498605 530.6572457929401L944.295632498605 627.2465711041951" stroke="#ff3333" stroke-width="2.0" stroke-dasharray="none" fill="none" marker-end="url(#ProcessOnMarker1074)"/></g><g id="ProcessOnG1076" transform="matrix(1.0,0.0,0.0,1.0,718.4622991652722,510.339781443278)" opacity="1.0"><path id="ProcessOnPath1077" d="M8.214285714285621 0.0L0.0 3.634920120239275L0.0 32.71428108215348L8.214285714285621 36.34920120239275M73.92857142857058 36.34920120239275L82.1428571428562 32.71428108215348L82.1428571428562 3.634920120239275L73.92857142857058 0.0" stroke="#323232" stroke-width="2.0" stroke-dasharray="none" opacity="1.0" fill="none"/><path id="ProcessOnPath1078" d="M0.0 0.0L82.1428571428562 0.0L82.1428571428562 36.34920120239275L0.0 36.34920120239275Z" stroke="none" stroke-width="0.0" stroke-dasharray="none" opacity="1.0" fill="none"/><g id="ProcessOnG1079" transform="matrix(1.0,0.0,0.0,1.0,10.0,10.049600601196374)"><text id="ProcessOnText1080" fill="#000000" font-size="13" x="30.0714285714281" y="13.325" font-family="微软雅黑" font-weight="normal" font-style="normal" text-decoration="none" family="微软雅黑" text-anchor="middle" size="13">传入索引</text></g></g><g id="ProcessOnG1081" transform="matrix(1.0,0.0,0.0,1.0,950.0099182128914,499.3874004908971)" opacity="1.0"><path id="ProcessOnPath1082" d="M7.78571428571421 0.0L0.0 5.357142857142856L0.0 48.2142857142857L7.78571428571421 53.571428571428555M70.07142857142789 53.571428571428555L77.8571428571421 48.2142857142857L77.8571428571421 5.357142857142856L70.07142857142789 0.0" stroke="#323232" stroke-width="2.0" stroke-dasharray="none" opacity="1.0" fill="none"/><path id="ProcessOnPath1083" d="M0.0 0.0L77.8571428571421 0.0L77.8571428571421 53.571428571428555L0.0 53.571428571428555Z" stroke="none" stroke-width="0.0" stroke-dasharray="none" opacity="1.0" fill="none"/><g id="ProcessOnG1084" transform="matrix(1.0,0.0,0.0,1.0,10.0,2.4107142857142776)"><text id="ProcessOnText1085" fill="#000000" font-size="13" x="27.928571428571047" y="13.325" font-family="微软雅黑" font-weight="normal" font-style="normal" text-decoration="none" family="微软雅黑" text-anchor="middle" size="13">返回索引</text><text id="ProcessOnText1086" fill="#000000" font-size="13" x="27.928571428571047" y="29.575" font-family="微软雅黑" font-weight="normal" font-style="normal" text-decoration="none" family="微软雅黑" text-anchor="middle" size="13">所指向的</text><text id="ProcessOnText1087" fill="#000000" font-size="13" x="27.928571428571047" y="45.825" font-family="微软雅黑" font-weight="normal" font-style="normal" text-decoration="none" family="微软雅黑" text-anchor="middle" size="13">实例</text></g></g><g id="ProcessOnG1088"><path id="ProcessOnPath1089" d="M880.4265877859934 734.493877603918L880.4265877859934 871.2524097371644L635.2467579677807 871.2524097371644" stroke="#ff3333" stroke-width="2.0" stroke-dasharray="none" fill="none" marker-end="url(#ProcessOnMarker1090)"/></g><g id="ProcessOnG1092" transform="matrix(1.0,0.0,0.0,1.0,620.0106899902809,619.5)" opacity="1.0"><path id="ProcessOnPath1093" d="M14.998931000971915 0.0L0.0 6.166666666666675L0.0 55.50000000000007L14.998931000971915 61.66666666666674M134.99037900874723 61.66666666666674L149.98931000971913 55.50000000000007L149.98931000971913 6.166666666666675L134.99037900874723 0.0" stroke="#323232" stroke-width="2.0" stroke-dasharray="none" opacity="1.0" fill="none"/><path id="ProcessOnPath1094" d="M0.0 0.0L149.98931000971913 0.0L149.98931000971913 61.66666666666674L0.0 61.66666666666674Z" stroke="none" stroke-width="0.0" stroke-dasharray="none" opacity="1.0" fill="none"/><g id="ProcessOnG1095" transform="matrix(1.0,0.0,0.0,1.0,10.0,-1.6666666666666288)"><text id="ProcessOnText1096" fill="#000000" font-size="13" x="63.99465500485957" y="13.325" font-family="微软雅黑" font-weight="normal" font-style="normal" text-decoration="none" family="微软雅黑" text-anchor="middle" size="13">将tempGameObject</text><text id="ProcessOnText1097" fill="#000000" font-size="13" x="63.99465500485957" y="29.575" font-family="微软雅黑" font-weight="normal" font-style="normal" text-decoration="none" family="微软雅黑" text-anchor="middle" size="13">，</text><text id="ProcessOnText1098" fill="#000000" font-size="13" x="63.99465500485957" y="45.825" font-family="微软雅黑" font-weight="normal" font-style="normal" text-decoration="none" family="微软雅黑" text-anchor="middle" size="13">"Transform"压栈，供</text><text id="ProcessOnText1099" fill="#000000" font-size="13" x="63.99465500485957" y="62.075" font-family="微软雅黑" font-weight="normal" font-style="normal" text-decoration="none" family="微软雅黑" text-anchor="middle" size="13">c#函数调用</text></g></g><g id="ProcessOnG1100" transform="matrix(1.0,0.0,0.0,1.0,742.4154518950429,878.8239135742185)" opacity="1.0"><path id="ProcessOnPath1101" d="M12.06658948892757 0.0L0.0 4.869154588117294L0.0 43.822391293055645L12.06658948892757 48.69154588117294M108.59930540034813 48.69154588117294L120.6658948892757 43.822391293055645L120.6658948892757 4.869154588117294L108.59930540034813 0.0" stroke="#323232" stroke-width="2.0" stroke-dasharray="none" opacity="1.0" fill="none"/><path id="ProcessOnPath1102" d="M0.0 0.0L120.6658948892757 0.0L120.6658948892757 48.69154588117294L0.0 48.69154588117294Z" stroke="none" stroke-width="0.0" stroke-dasharray="none" opacity="1.0" fill="none"/><g id="ProcessOnG1103" transform="matrix(1.0,0.0,0.0,1.0,10.0,-0.029227059413528877)"><text id="ProcessOnText1104" fill="#000000" font-size="13" x="49.33294744463785" y="13.325" font-family="微软雅黑" font-weight="normal" font-style="normal" text-decoration="none" family="微软雅黑" text-anchor="middle" size="13">将调用结果压栈</text><text id="ProcessOnText1105" fill="#000000" font-size="13" x="49.33294744463785" y="29.575" font-family="微软雅黑" font-weight="normal" font-style="normal" text-decoration="none" family="微软雅黑" text-anchor="middle" size="13">，然后赋值给tra</text><text id="ProcessOnText1106" fill="#000000" font-size="13" x="49.33294744463785" y="45.825" font-family="微软雅黑" font-weight="normal" font-style="normal" text-decoration="none" family="微软雅黑" text-anchor="middle" size="13">nsform</text></g></g><g id="ProcessOnG1107" transform="matrix(1.0,0.0,0.0,1.0,439.7857142857142,631.9124687656922)" opacity="1.0"><path id="ProcessOnPath1108" d="M0.0 0.0L169.7212284633092 0.0L169.7212284633092 112.52609943645427L0.0 112.52609943645427Z" stroke="#323232" stroke-width="2.0" stroke-dasharray="none" opacity="1.0" fill="#ffffff"/><g id="ProcessOnG1109" transform="matrix(1.0,0.0,0.0,1.0,10.0,26.263049718227137)"><text id="ProcessOnText1110" fill="#000000" font-size="16" x="73.8606142316546" y="16.4" font-family="微软雅黑" font-weight="normal" font-style="normal" text-decoration="none" family="微软雅黑" text-anchor="middle" size="16">调用tempGameObj</text><text id="ProcessOnText1111" fill="#000000" font-size="16" x="73.8606142316546" y="36.4" font-family="微软雅黑" font-weight="normal" font-style="normal" text-decoration="none" family="微软雅黑" text-anchor="middle" size="16">ect.GetComponent</text><text id="ProcessOnText1112" fill="#000000" font-size="16" x="73.8606142316546" y="56.4" font-family="微软雅黑" font-weight="normal" font-style="normal" text-decoration="none" family="微软雅黑" text-anchor="middle" size="16">("Transform")</text></g></g><g id="ProcessOnG1113"><path id="ProcessOnPath1114" d="M609.5069427490234 688.1755184839193L692.7534713745117 688.1755184839193L692.7534713745117 688.1755184839194L760.7639320225002 688.1755184839194" stroke="#ff3333" stroke-width="2.0" stroke-dasharray="none" fill="none" marker-end="url(#ProcessOnMarker1115)"/></g><g id="ProcessOnG1117" transform="matrix(1.0,0.0,0.0,1.0,450.28946152697165,814.9893600189372)" opacity="1.0"><path id="ProcessOnPath1118" d="M0.0 0.0L169.7212284633092 0.0L169.7212284633092 112.52609943645427L0.0 112.52609943645427Z" stroke="#323232" stroke-width="2.0" stroke-dasharray="none" opacity="1.0" fill="#ffffff"/><g id="ProcessOnG1119" transform="matrix(1.0,0.0,0.0,1.0,10.0,46.26304971822714)"><text id="ProcessOnText1120" fill="#000000" font-size="16" x="73.8606142316546" y="16.4" font-family="微软雅黑" font-weight="normal" font-style="normal" text-decoration="none" family="微软雅黑" text-anchor="middle" size="16">transform变量</text></g></g><g id="ProcessOnG1121" transform="matrix(1.0,0.0,0.0,1.0,130.96740411252347,23.0)" opacity="1.0"><path id="ProcessOnPath1122" d="M13.333333333333334 0.0L170.66666666666666 0.0C188.44444444444446 0.0 188.44444444444446 40.0 170.66666666666666 40.0L13.333333333333334 40.0C-4.444444444444445 40.0 -4.444444444444445 0.0 13.333333333333334 0.0Z" stroke="#323232" stroke-width="2.0" stroke-dasharray="none" opacity="1.0" fill="#ffffff"/><g id="ProcessOnG1123" transform="matrix(1.0,0.0,0.0,1.0,10.0,7.5)"><text id="ProcessOnText1124" fill="#000000" font-size="20" x="81.0" y="20.5" font-family="微软雅黑" font-weight="bold" font-style="normal" text-decoration="none" family="微软雅黑" text-anchor="middle" size="20">创建一个实例</text></g></g><g id="ProcessOnG1125"><path id="ProcessOnPath1126" d="M222.96740411252347 63.0L222.96740411252347 79.0L222.96740411252347 79.0L222.96740411252347 79.76393202250021" stroke="#323232" stroke-width="2.0" stroke-dasharray="none" fill="none" marker-end="url(#ProcessOnMarker1127)"/></g><g id="ProcessOnG1129" transform="matrix(1.0,0.0,0.0,1.0,151.79056837120788,839.6937002454486)" opacity="1.0"><path id="ProcessOnPath1130" d="M16.986276354108554 0.0L125.36739512852262 0.0C148.01576360066736 0.0 148.01576360066736 50.95882906232566 125.36739512852262 50.95882906232566L16.986276354108554 50.95882906232566C-5.662092118036185 50.95882906232566 -5.662092118036185 0.0 16.986276354108554 0.0Z" stroke="#323232" stroke-width="2.0" stroke-dasharray="none" opacity="1.0" fill="#ffffff"/><g id="ProcessOnG1131" transform="matrix(1.0,0.0,0.0,1.0,10.0,12.979414531162831)"><text id="ProcessOnText1132" fill="#000000" font-size="20" x="60.176835741315585" y="20.5" font-family="微软雅黑" font-weight="bold" font-style="normal" text-decoration="none" family="微软雅黑" text-anchor="middle" size="20">调用一个函数</text></g></g><g id="ProcessOnG1133"><path id="ProcessOnPath1134" d="M222.96740411252347 839.6937002454486L222.96740411252347 801.0484906605311L222.9674041125235 801.0484906605311L222.9674041125235 777.6393490531136" stroke="#ff3333" stroke-width="2.0" stroke-dasharray="none" fill="none" marker-end="url(#ProcessOnMarker1135)"/></g><g id="ProcessOnG1137"><path id="ProcessOnPath1138" d="M400.1490939393327 688.355655670166L419.96740411252347 688.355655670166L419.96740411252347 688.1755184839194L424.54964630821445 688.1755184839194" stroke="#ff3333" stroke-width="2.0" stroke-dasharray="none" fill="none" marker-end="url(#ProcessOnMarker1139)"/></g></g></g></svg>